<svg width="215" height="228" viewBox="0 0 215 228" fill="none" xmlns="http://www.w3.org/2000/svg">
<rect x="9" width="206" height="198" rx="20" fill="#BE88F3"/>
<g filter="url(#filter0_d)">
<path d="M74.2203 122.365L183.585 153.499L137.557 186.168L17.7546 139.09L74.2203 122.365Z" fill="#A47295"/>
<path d="M134.684 183.46L137.263 184.991L137.071 210L134.684 208.236V183.46Z" fill="#D6C29C"/>
<path d="M177.917 162.977L180.398 161.3V186.292L177.917 184.616V162.977Z" fill="#D3C09C"/>
<path d="M183.102 154.139H180.397V186.445L183.102 183.624V154.139Z" fill="#E2CEA8"/>
<path d="M17.9878 139.059L137.423 183.493L137.423 191.04L17.9878 145.738L17.9878 139.059Z" fill="#D6C29C"/>
<path d="M17.6865 138.879L20.0148 137.68V163.434L17.6865 161.91V138.879Z" fill="#CCB28C"/>
<path d="M17.7599 104.35C17.7599 104.35 17.445 98.9036 20.2219 94.3329C24.3194 87.5887 27.6951 85.1955 34.1288 81.9694C36.3115 80.8749 38.6606 79.9387 41.0822 79.2066C45.6446 77.8273 50.4642 77.1723 54.9134 77.5474C58.7839 77.8737 63.3754 78.4709 67.6446 81.9694C71.0006 84.7195 74.5225 88.5366 74.5225 94.3329C74.5225 104.35 74.5225 122.545 74.5225 122.545L17.7599 141.26L17.7599 104.35Z" fill="#CCB38C"/>
<g filter="url(#filter1_d)">
<path d="M72.8694 126.246C70.3829 128.903 68.2718 128.603 65.1871 130.869C56.3185 137.383 50.8183 141.905 40.903 145.258C37.9368 145.901 35.4876 147.718 33.3077 146.903C31.1278 146.088 26.7648 133.424 24.436 123.076C23.7025 119.817 22.5779 118.084 23.2994 116.473C24.0209 114.862 33.7035 109.064 40.7628 105.379C48.9708 101.095 58.5477 97.1183 63.8893 97.3627C69.2308 97.6071 75.356 123.59 72.8694 126.246Z" fill="#FDDEF4"/>
<g filter="url(#filter2_i)">
<path d="M25.423 121.979C24.762 120.046 23.4397 117.438 24.6475 117.421C24.9788 117.242 25.4762 118.177 26.1269 121.122C26.788 123.054 26.6553 125.461 26.6553 125.461C25.8192 125.233 26.0841 123.911 25.423 121.979Z" fill="#CFA0C2"/>
</g>
<g filter="url(#filter3_i)">
<path d="M27.5401 130.863C26.879 128.93 26.5191 127.268 26.736 127.151C28.2833 128.283 28.1595 130.069 28.8206 132.002C29.4816 133.935 29.3468 134.033 29.1298 134.15C28.9128 134.267 28.2011 132.795 27.5401 130.863Z" fill="#CFA0C2"/>
</g>
<g filter="url(#filter4_i)">
<path d="M30.9801 140.769C30.0831 138.147 28.963 135.831 29.4292 135.579C29.8954 135.327 30.8667 137.193 31.7637 139.815C32.6606 142.438 33.9146 144.81 33.4483 145.062C32.9821 145.314 31.877 143.392 30.9801 140.769Z" fill="#CFA0C2"/>
</g>
</g>
<path d="M137.33 181.926L183.132 152.596L183.132 159.545L137.33 190.68L137.33 181.926Z" fill="#E2CEA8"/>
<g filter="url(#filter5_d)">
<path d="M68.3998 119.566C72.4544 117.79 72.3563 118.061 76.4869 119.566C80.731 121.113 81.7682 121.574 85.8589 123.627C91.7937 126.606 96.3206 124.666 102.487 126.876C105.316 127.89 106.754 128.962 109.516 130.215C116.53 133.399 120.415 135.529 127.731 137.525C134.437 139.355 138.436 138.757 145.19 140.323C155.287 142.663 170.509 148.986 170.509 148.986L133.475 181.745L131.207 194.921C131.207 194.921 123.766 196.38 119.266 194.921C112.048 192.581 111.585 183.411 104.603 180.211C98.8997 177.597 93.9384 182.754 89.0333 178.406C84.6558 174.526 82.9113 163.425 82.9113 163.425C82.9113 163.425 62.6512 147.206 49.0511 150.52C43.8633 151.785 40.0445 161.359 36.5048 156.657C34.7722 154.356 34.842 148.986 34.842 148.986C34.842 148.986 36.6886 144.223 38.4699 141.676C42.384 136.08 47.4746 137.267 52.0744 132.471C55.4336 128.969 56.0544 127.035 59.4813 123.627C61.7021 121.419 65.6865 120.755 68.3998 119.566Z" fill="#D89CC6"/>
</g>
<path d="M133.248 155.124L134.182 156.932H137.202L134.758 158.05L135.692 159.858L133.248 158.74L130.805 159.858L131.738 158.05L129.295 156.932H132.315L133.248 155.124Z" fill="#E9BBDB"/>
<path d="M119.039 175.879L119.973 177.688H122.993L120.549 178.805L121.483 180.614L119.039 179.496L116.596 180.614L117.529 178.805L115.086 177.688H118.106L119.039 175.879Z" fill="#E9BBDB"/>
<path d="M93.0393 154.221L93.9725 156.03H96.9927L94.5494 157.147L95.4826 158.956L93.0393 157.838L90.5959 158.956L91.5292 157.147L89.0858 156.03H92.106L93.0393 154.221Z" fill="#E9BBDB"/>
<path d="M79.4353 125.343L80.3685 127.151H83.3887L80.9453 128.269L81.8786 130.077L79.4353 128.96L76.9919 130.077L77.9252 128.269L75.4818 127.151H78.502L79.4353 125.343Z" fill="#E9BBDB"/>
<path d="M117.83 141.045L118.764 142.853H121.784L119.34 143.971L120.274 145.779L117.83 144.662L115.387 145.779L116.32 143.971L113.877 142.853H116.897L117.83 141.045Z" fill="#E9BBDB"/>
<path d="M101.358 175.721C98.0692 179.758 96.1185 178.57 93.6647 175.721C91.2109 172.871 89.1832 169.44 92.4717 165.402C101.358 175.721 106.327 152.009 108.781 154.859C111.235 157.708 104.646 171.683 101.358 175.721Z" fill="#D499C3"/>
<path d="M76.7135 142.76C73.425 146.798 69.0395 155.356 66.5857 152.507C57.3649 142.76 41.7197 153.489 39.0744 150.251C30.0804 139.241 61.8241 133.916 68.1924 123.995C74.8995 118.033 80.002 138.723 76.7135 142.76Z" fill="#D599C3"/>
<path d="M71.1208 140.324L72.0541 142.132H75.0743L72.6309 143.25L73.5642 145.058L71.1208 143.94L68.6774 145.058L69.6107 143.25L67.1673 142.132H70.1875L71.1208 140.324Z" fill="#E9BBDB"/>
<path d="M137.135 164.349C137.135 164.349 137.862 153.376 140.639 148.805C144.736 142.061 151.514 141.669 157.948 138.443C160.131 137.349 165.939 136.28 168.361 135.548C170.465 134.912 172.818 134.782 175.179 134.865C179.762 135.024 183.109 139.447 183.109 144.71C183.109 150.137 183.109 153.499 183.109 153.499L137.135 185.717L137.135 164.349Z" fill="#E2CEA8"/>
<path d="M59.9213 110.037C61.0213 112.985 54.073 119.585 44.5945 120.274C35.7691 120.104 36.478 124.613 35.378 121.665C34.2781 118.717 41.8374 118.605 48.6148 115.394C55.3923 112.183 58.8213 107.089 59.9213 110.037Z" fill="#F9D6EF"/>
<path d="M64.2485 112.475C65.3485 115.423 58.4001 122.024 48.9216 122.713C40.0962 122.542 40.8052 127.052 39.7052 124.104C38.6052 121.156 46.1646 121.043 52.942 117.832C59.7194 114.621 63.1485 109.527 64.2485 112.475Z" fill="#FADAF1"/>
<path d="M137.071 185.388H140.143V208.412L137.071 210.001V185.388Z" fill="#E2CEA8"/>
<path d="M20.0137 146.367L23.124 147.738V162.367L20.0137 163.586V146.367Z" fill="#E2CEA9"/>
</g>
<defs>
<filter id="filter0_d" x="17.6865" y="77.4429" width="178.899" height="150.558" filterUnits="userSpaceOnUse" color-interpolation-filters="sRGB">
<feFlood flood-opacity="0" result="BackgroundImageFix"/>
<feColorMatrix in="SourceAlpha" type="matrix" values="0 0 0 0 0 0 0 0 0 0 0 0 0 0 0 0 0 0 127 0"/>
<feOffset dx="13" dy="18"/>
<feColorMatrix type="matrix" values="0 0 0 0 0.64177 0 0 0 0 0.416875 0 0 0 0 0.8625 0 0 0 1 0"/>
<feBlend mode="normal" in2="BackgroundImageFix" result="effect1_dropShadow"/>
<feBlend mode="normal" in="SourceGraphic" in2="effect1_dropShadow" result="shape"/>
</filter>
<filter id="filter1_d" x="23.0674" y="73.3521" width="53.3729" height="73.7576" filterUnits="userSpaceOnUse" color-interpolation-filters="sRGB">
<feFlood flood-opacity="0" result="BackgroundImageFix"/>
<feColorMatrix in="SourceAlpha" type="matrix" values="0 0 0 0 0 0 0 0 0 0 0 0 0 0 0 0 0 0 127 0"/>
<feOffset dx="3" dy="-24"/>
<feColorMatrix type="matrix" values="0 0 0 0 0.75 0 0 0 0 0.652246 0 0 0 0 0.509375 0 0 0 1 0"/>
<feBlend mode="normal" in2="BackgroundImageFix" result="effect1_dropShadow"/>
<feBlend mode="normal" in="SourceGraphic" in2="effect1_dropShadow" result="shape"/>
</filter>
<filter id="filter2_i" x="24.1572" y="117.4" width="2.50896" height="9.06116" filterUnits="userSpaceOnUse" color-interpolation-filters="sRGB">
<feFlood flood-opacity="0" result="BackgroundImageFix"/>
<feBlend mode="normal" in="SourceGraphic" in2="BackgroundImageFix" result="shape"/>
<feColorMatrix in="SourceAlpha" type="matrix" values="0 0 0 0 0 0 0 0 0 0 0 0 0 0 0 0 0 0 127 0" result="hardAlpha"/>
<feOffset dy="1"/>
<feGaussianBlur stdDeviation="6"/>
<feComposite in2="hardAlpha" operator="arithmetic" k2="-1" k3="1"/>
<feColorMatrix type="matrix" values="0 0 0 0 0 0 0 0 0 0 0 0 0 0 0 0 0 0 0.09 0"/>
<feBlend mode="normal" in2="shape" result="effect1_innerShadow"/>
</filter>
<filter id="filter3_i" x="26.6729" y="127.151" width="2.63492" height="8.0057" filterUnits="userSpaceOnUse" color-interpolation-filters="sRGB">
<feFlood flood-opacity="0" result="BackgroundImageFix"/>
<feBlend mode="normal" in="SourceGraphic" in2="BackgroundImageFix" result="shape"/>
<feColorMatrix in="SourceAlpha" type="matrix" values="0 0 0 0 0 0 0 0 0 0 0 0 0 0 0 0 0 0 127 0" result="hardAlpha"/>
<feOffset dy="1"/>
<feGaussianBlur stdDeviation="6"/>
<feComposite in2="hardAlpha" operator="arithmetic" k2="-1" k3="1"/>
<feColorMatrix type="matrix" values="0 0 0 0 0 0 0 0 0 0 0 0 0 0 0 0 0 0 0.09 0"/>
<feBlend mode="normal" in2="shape" result="effect1_innerShadow"/>
</filter>
<filter id="filter4_i" x="29.3198" y="135.556" width="4.22922" height="10.5281" filterUnits="userSpaceOnUse" color-interpolation-filters="sRGB">
<feFlood flood-opacity="0" result="BackgroundImageFix"/>
<feBlend mode="normal" in="SourceGraphic" in2="BackgroundImageFix" result="shape"/>
<feColorMatrix in="SourceAlpha" type="matrix" values="0 0 0 0 0 0 0 0 0 0 0 0 0 0 0 0 0 0 127 0" result="hardAlpha"/>
<feOffset dy="1"/>
<feGaussianBlur stdDeviation="6"/>
<feComposite in2="hardAlpha" operator="arithmetic" k2="-1" k3="1"/>
<feColorMatrix type="matrix" values="0 0 0 0 0 0 0 0 0 0 0 0 0 0 0 0 0 0 0.09 0"/>
<feBlend mode="normal" in2="shape" result="effect1_innerShadow"/>
</filter>
<filter id="filter5_d" x="34.8418" y="118.333" width="151.668" height="79.2354" filterUnits="userSpaceOnUse" color-interpolation-filters="sRGB">
<feFlood flood-opacity="0" result="BackgroundImageFix"/>
<feColorMatrix in="SourceAlpha" type="matrix" values="0 0 0 0 0 0 0 0 0 0 0 0 0 0 0 0 0 0 127 0"/>
<feOffset dx="16" dy="2"/>
<feColorMatrix type="matrix" values="0 0 0 0 0.391667 0 0 0 0 0.391667 0 0 0 0 0.391667 0 0 0 0.2 0"/>
<feBlend mode="normal" in2="BackgroundImageFix" result="effect1_dropShadow"/>
<feBlend mode="normal" in="SourceGraphic" in2="effect1_dropShadow" result="shape"/>
</filter>
</defs>
</svg>
