<svg width="305" height="260" viewBox="0 0 305 260" fill="none" xmlns="http://www.w3.org/2000/svg">
<rect width="254" height="260" rx="20" fill="#73D5CF"/>
<g filter="url(#filter0_d)">
<ellipse cx="104.36" cy="209.594" rx="12.9691" ry="17.9652" fill="#8E8E8E"/>
<path d="M95.2828 202.617C93.3335 207.047 94.0878 212.409 96.6944 217.024C99.8287 222.573 107.956 227.559 103.416 227.559C88.3593 227.559 86.8132 218.349 86.8132 210.466C86.8132 200.293 95.1005 191.628 103.416 191.628C113.566 191.628 96.6944 196.059 95.2828 202.617Z" fill="#838383"/>
<ellipse cx="105.123" cy="209.593" rx="11.189" ry="16.403" fill="#676767"/>
<path d="M183.446 185.379H204.519L212.986 197.429L215.996 212.099L188.338 214.02L183.446 185.379Z" fill="#414141"/>
<path d="M244.478 143.722H265.222L273.556 155.772L276.519 170.441L249.293 172.362L244.478 143.722Z" fill="#414141"/>
<path d="M207.333 212.445C208.062 234.413 197.051 232.045 189.282 232.045C180.322 232.045 174.887 222.977 174.887 212.445C174.887 201.912 180.322 193.374 189.282 193.374C199.107 193.374 206.604 190.477 207.333 212.445Z" fill="#6A6A6A"/>
<ellipse cx="197.737" cy="212.444" rx="11.4248" ry="19.0707" fill="#7D7D7D"/>
<ellipse cx="197.737" cy="212.444" rx="5.94087" ry="9.53533" fill="#8D8D8D"/>
<path d="M206.681 212.444C206.681 216.758 205.632 220.639 203.963 223.425C202.288 226.221 200.044 227.837 197.66 227.837C195.276 227.837 193.032 226.221 191.357 223.425C189.688 220.639 188.639 216.758 188.639 212.444C188.639 208.131 189.688 204.25 191.357 201.464C193.032 198.668 195.276 197.052 197.66 197.052C200.044 197.052 202.288 198.668 203.963 201.464C205.632 204.25 206.681 208.131 206.681 212.444Z" stroke="#979797"/>
<path d="M269.057 171.86C269.715 190.266 259.769 188.282 252.752 188.282C244.66 188.282 239.75 180.685 239.75 171.86C239.75 163.036 244.66 155.882 252.752 155.882C261.627 155.882 268.398 153.455 269.057 171.86Z" fill="#6A6A6A"/>
<ellipse cx="260.388" cy="171.86" rx="10.3191" ry="15.9781" fill="#7D7D7D"/>
<ellipse cx="260.389" cy="171.861" rx="5.36594" ry="7.98906" fill="#8D8D8D"/>
<path d="M268.418 171.861C268.418 175.457 267.476 178.688 265.98 181.005C264.48 183.328 262.467 184.677 260.319 184.677C258.171 184.677 256.158 183.328 254.658 181.005C253.162 178.688 252.22 175.457 252.22 171.861C252.22 168.266 253.162 165.035 254.658 162.718C256.158 160.395 258.171 159.046 260.319 159.046C262.467 159.046 264.48 160.395 265.98 162.718C267.476 165.035 268.418 168.266 268.418 171.861Z" stroke="#979797"/>
<path d="M164.628 146.617L287.009 98.4509C288.322 97.9345 289.742 98.9018 289.742 100.312V153.718C289.742 154.09 289.536 154.431 289.207 154.603L271.446 163.93C271.446 163.93 270.867 157.812 266.641 156.246C262.391 154.672 261.344 154.637 257.586 156.246C253.828 157.856 251.151 160.141 248.345 165.677C245.539 171.213 247.421 180.7 247.421 180.7L210.597 203.264C210.597 203.264 209.177 197.009 206.241 194.376C202.253 190.799 198.633 190.378 194.012 191.705C189.392 193.032 183.038 195.923 180.522 203.264C178.038 210.509 179.043 225.768 179.043 225.768L164.628 234.328V146.617Z" fill="#CF2F2F"/>
<path d="M86.3049 137.818C86.3049 134.671 89.1765 132.307 92.2646 132.911L161.894 146.528C164.24 146.987 165.934 149.043 165.934 151.435V228.812C165.934 231.947 163.082 234.309 160.002 233.725L90.3733 220.52C88.0132 220.072 86.3049 218.01 86.3049 215.608V137.818Z" fill="#980D0D"/>
<path d="M87.0679 136.432L164.567 151.67L163.851 213.49L87.0679 198.138L87.0679 168.196L87.0679 136.432Z" fill="#302D3E"/>
<path d="M167.05 151.924L285.634 102.372L285.634 137.566L167.05 199.22L167.05 151.924Z" fill="#393156"/>
<path d="M109.218 219.013C109.218 216.336 111.719 214.268 114.37 214.753L132.662 218.104C134.634 218.465 136.042 220.145 136.042 222.137C136.042 224.831 133.521 226.911 130.855 226.416L112.571 223.024C110.614 222.661 109.218 220.991 109.218 219.013Z" fill="#D5D5D5" stroke="#ADADAD"/>
<path d="M209.385 133.495L212.945 131.224V182.064L209.385 184.859V133.495Z" fill="#CF2F2F"/>
<path d="M286.135 109.552L286.135 112.749L166.598 163.299L166.598 160.24L286.135 109.552Z" fill="#CF2F2F"/>
<path d="M251.09 116.481L254.65 113.52V158.469L251.09 160.385V116.481Z" fill="#CF2F2F"/>
<path d="M177.624 183.678C176.923 186.317 177.954 189.984 171.543 187.876C168.371 186.834 165.646 190.344 165.646 185.273C165.646 180.202 170.345 183.342 170.345 177.044C170.345 170.746 179.386 177.044 177.624 183.678Z" fill="#980D0D"/>
<g filter="url(#filter1_i)">
<path d="M164.503 219.697C164.532 217.745 163.14 216.071 161.214 215.744L151.264 214.051C148.658 213.608 146.256 215.605 146.216 218.246C146.184 220.441 147.819 222.292 150.004 222.531L160.042 223.631C162.393 223.889 164.468 222.059 164.503 219.697Z" fill="#C4C4C4"/>
</g>
<ellipse rx="4.94106" ry="3.03176" transform="matrix(-0.976852 -0.213917 -0.237441 0.971402 152.274 218.598)" fill="#F5EAEA"/>
<ellipse rx="2.26331" ry="1.70832" transform="matrix(0.982705 0.185177 0.204122 -0.978945 160.385 219.916)" fill="#DB7171"/>
<g filter="url(#filter2_d)">
<path d="M106.463 138.738C106.935 138.077 107.753 137.747 108.541 137.899L145.032 144.937C146.273 145.176 146.946 146.484 146.424 147.644L144.427 152.091C144.034 152.965 143.08 153.464 142.146 153.284L104.618 146.046C103.211 145.774 102.586 144.165 103.429 142.985L106.463 138.738Z" fill="#CF2F2F"/>
</g>
<line y1="-3" x2="5.77298" y2="-3" transform="matrix(0.736023 -0.676956 0.736023 0.676956 108.671 140.854)" stroke="#C11616" stroke-width="6"/>
<line y1="-3" x2="5.77298" y2="-3" transform="matrix(0.736023 -0.676956 0.736023 0.676956 140.632 147.31)" stroke="#C11616" stroke-width="6"/>
<path d="M87.7271 132.663L237.723 93.091L286.483 97.4498C287.548 97.545 287.827 98.938 286.859 99.3274L166.128 147.904L87.7271 132.663Z" fill="#C11616"/>
<g filter="url(#filter3_i)">
<path d="M86.92 205.842C86.92 203.719 88.947 202.078 91.0615 202.49L101.012 204.427C102.728 204.761 103.94 206.214 103.94 207.937C103.94 210.467 101.411 212.348 98.9517 211.649L89.2374 208.885C87.8548 208.491 86.92 207.264 86.92 205.842Z" fill="#C4C4C4"/>
</g>
<ellipse rx="4.83116" ry="2.83813" transform="matrix(0.968781 0.247916 -0.289552 0.957162 98.3991 207.494)" fill="#F5EAEA"/>
<ellipse rx="2.20713" ry="1.71086" transform="matrix(0.968781 0.247916 -0.289552 0.957162 90.4771 206.183)" fill="#DB7171"/>
<path d="M89.2509 153.779C89.2723 152.533 90.4228 151.595 91.6499 151.823L106.989 154.671C107.937 154.848 108.614 155.675 108.598 156.639L108.04 189.126C108.019 190.365 106.882 191.301 105.661 191.086L90.3194 188.393C89.3615 188.225 88.6741 187.393 88.6907 186.423L89.2509 153.779Z" fill="#373347"/>
<line x1="2" y1="-2" x2="26.7886" y2="-2" transform="matrix(0.972924 0.231123 -0.254438 0.967089 96.3884 194.998)" stroke="#686459" stroke-width="4" stroke-linecap="round"/>
<line x1="2" y1="-2" x2="29.1958" y2="-2" transform="matrix(0.909661 0.415351 -0.451273 0.892386 118.5 195.349)" stroke="#605A4C" stroke-width="4" stroke-linecap="round"/>
</g>
<defs>
<filter id="filter0_d" x="86.3049" y="93.0908" width="211.437" height="156.237" filterUnits="userSpaceOnUse" color-interpolation-filters="sRGB">
<feFlood flood-opacity="0" result="BackgroundImageFix"/>
<feColorMatrix in="SourceAlpha" type="matrix" values="0 0 0 0 0 0 0 0 0 0 0 0 0 0 0 0 0 0 127 0"/>
<feOffset dx="8" dy="15"/>
<feColorMatrix type="matrix" values="0 0 0 0 0.313889 0 0 0 0 0.666667 0 0 0 0 0.648482 0 0 0 1 0"/>
<feBlend mode="normal" in2="BackgroundImageFix" result="effect1_dropShadow"/>
<feBlend mode="normal" in="SourceGraphic" in2="effect1_dropShadow" result="shape"/>
</filter>
<filter id="filter1_i" x="146.216" y="213.99" width="18.2877" height="9.666" filterUnits="userSpaceOnUse" color-interpolation-filters="sRGB">
<feFlood flood-opacity="0" result="BackgroundImageFix"/>
<feBlend mode="normal" in="SourceGraphic" in2="BackgroundImageFix" result="shape"/>
<feColorMatrix in="SourceAlpha" type="matrix" values="0 0 0 0 0 0 0 0 0 0 0 0 0 0 0 0 0 0 127 0" result="hardAlpha"/>
<feOffset dx="-3" dy="-3"/>
<feComposite in2="hardAlpha" operator="arithmetic" k2="-1" k3="1"/>
<feColorMatrix type="matrix" values="0 0 0 0 0.6875 0 0 0 0 0.664583 0 0 0 0 0.664583 0 0 0 1 0"/>
<feBlend mode="normal" in2="shape" result="effect1_innerShadow"/>
</filter>
<filter id="filter2_d" x="103.048" y="137.862" width="43.5545" height="21.458" filterUnits="userSpaceOnUse" color-interpolation-filters="sRGB">
<feFlood flood-opacity="0" result="BackgroundImageFix"/>
<feColorMatrix in="SourceAlpha" type="matrix" values="0 0 0 0 0 0 0 0 0 0 0 0 0 0 0 0 0 0 127 0"/>
<feOffset dy="6"/>
<feColorMatrix type="matrix" values="0 0 0 0 0.286618 0 0 0 0 0.28375 0 0 0 0 0.3 0 0 0 1 0"/>
<feBlend mode="normal" in2="BackgroundImageFix" result="effect1_dropShadow"/>
<feBlend mode="normal" in="SourceGraphic" in2="effect1_dropShadow" result="shape"/>
</filter>
<filter id="filter3_i" x="86.9199" y="202.426" width="17.0201" height="9.36983" filterUnits="userSpaceOnUse" color-interpolation-filters="sRGB">
<feFlood flood-opacity="0" result="BackgroundImageFix"/>
<feBlend mode="normal" in="SourceGraphic" in2="BackgroundImageFix" result="shape"/>
<feColorMatrix in="SourceAlpha" type="matrix" values="0 0 0 0 0 0 0 0 0 0 0 0 0 0 0 0 0 0 127 0" result="hardAlpha"/>
<feOffset dx="-3" dy="-3"/>
<feComposite in2="hardAlpha" operator="arithmetic" k2="-1" k3="1"/>
<feColorMatrix type="matrix" values="0 0 0 0 0.6875 0 0 0 0 0.664583 0 0 0 0 0.664583 0 0 0 1 0"/>
<feBlend mode="normal" in2="shape" result="effect1_innerShadow"/>
</filter>
</defs>
</svg>
