<svg width="252" height="261" viewBox="0 0 252 261" fill="none" xmlns="http://www.w3.org/2000/svg">
<rect width="252" height="245" rx="20" fill="#C51D45"/>
<g filter="url(#filter0_d)">
<path d="M61.2244 90.3692C61.0928 84.7561 65.607 80.1348 71.2217 80.1348H149.537C155.149 80.1348 159.663 84.7527 159.534 90.3638L156.078 241.229C155.954 246.661 151.514 251 146.081 251H74.7599C69.3284 251 64.89 246.664 64.7626 241.234L61.2244 90.3692Z" fill="#574534"/>
<path d="M69.7468 99.2046C69.6268 93.5992 74.1379 88.9905 79.7445 88.9905H141.548C147.152 88.9905 151.663 93.5961 151.546 99.1996L148.706 234.958C148.592 240.398 144.149 244.749 138.708 244.749H82.652C77.2126 244.749 72.7707 240.401 72.6543 234.963L69.7468 99.2046Z" fill="#745C46"/>
<g filter="url(#filter1_i)">
<rect x="80.7415" y="104.618" width="29.3682" height="65.1163" fill="#654E3A"/>
</g>
<g filter="url(#filter2_i)">
<rect x="80.7415" y="173.903" width="29.3682" height="58.8652" fill="#654E3A"/>
</g>
<g filter="url(#filter3_i)">
<rect x="114.381" y="173.903" width="26.1644" height="58.8652" fill="#654E3A"/>
</g>
<g filter="url(#filter4_i)">
<rect x="114.381" y="104.618" width="26.1644" height="65.1163" fill="#654E3A"/>
</g>
<g filter="url(#filter5_d)">
<path d="M148.341 163.522C147.859 167.851 140.742 164.765 136.808 164.247C132.874 163.73 129.172 172.113 129.945 165.18C130.428 160.851 137.62 159.052 141.554 159.57C145.488 160.087 148.824 159.193 148.341 163.522Z" fill="#D2AC4B"/>
</g>
<path d="M132.423 164.573C131.721 165.251 131.612 166.362 131.152 165.801C130.693 165.239 130.889 164.234 131.591 163.557C132.293 162.879 133.235 162.784 133.695 163.346C134.154 163.908 133.125 163.895 132.423 164.573Z" fill="#F1C85E"/>
</g>
<defs>
<filter id="filter0_d" x="61.2217" y="80.1348" width="111.315" height="180.865" filterUnits="userSpaceOnUse" color-interpolation-filters="sRGB">
<feFlood flood-opacity="0" result="BackgroundImageFix"/>
<feColorMatrix in="SourceAlpha" type="matrix" values="0 0 0 0 0 0 0 0 0 0 0 0 0 0 0 0 0 0 127 0"/>
<feOffset dx="13" dy="10"/>
<feColorMatrix type="matrix" values="0 0 0 0 0.666667 0 0 0 0 0.111111 0 0 0 0 0.243386 0 0 0 1 0"/>
<feBlend mode="normal" in2="BackgroundImageFix" result="effect1_dropShadow"/>
<feBlend mode="normal" in="SourceGraphic" in2="effect1_dropShadow" result="shape"/>
</filter>
<filter id="filter1_i" x="80.7415" y="104.618" width="29.3682" height="65.1163" filterUnits="userSpaceOnUse" color-interpolation-filters="sRGB">
<feFlood flood-opacity="0" result="BackgroundImageFix"/>
<feBlend mode="normal" in="SourceGraphic" in2="BackgroundImageFix" result="shape"/>
<feColorMatrix in="SourceAlpha" type="matrix" values="0 0 0 0 0 0 0 0 0 0 0 0 0 0 0 0 0 0 127 0" result="hardAlpha"/>
<feOffset dx="-4" dy="2"/>
<feComposite in2="hardAlpha" operator="arithmetic" k2="-1" k3="1"/>
<feColorMatrix type="matrix" values="0 0 0 0 0.358333 0 0 0 0 0.273681 0 0 0 0 0.200069 0 0 0 1 0"/>
<feBlend mode="normal" in2="shape" result="effect1_innerShadow"/>
</filter>
<filter id="filter2_i" x="80.7415" y="173.903" width="29.3682" height="58.8652" filterUnits="userSpaceOnUse" color-interpolation-filters="sRGB">
<feFlood flood-opacity="0" result="BackgroundImageFix"/>
<feBlend mode="normal" in="SourceGraphic" in2="BackgroundImageFix" result="shape"/>
<feColorMatrix in="SourceAlpha" type="matrix" values="0 0 0 0 0 0 0 0 0 0 0 0 0 0 0 0 0 0 127 0" result="hardAlpha"/>
<feOffset dx="-4" dy="2"/>
<feComposite in2="hardAlpha" operator="arithmetic" k2="-1" k3="1"/>
<feColorMatrix type="matrix" values="0 0 0 0 0.356863 0 0 0 0 0.27451 0 0 0 0 0.2 0 0 0 1 0"/>
<feBlend mode="normal" in2="shape" result="effect1_innerShadow"/>
</filter>
<filter id="filter3_i" x="114.381" y="173.903" width="26.1644" height="58.8652" filterUnits="userSpaceOnUse" color-interpolation-filters="sRGB">
<feFlood flood-opacity="0" result="BackgroundImageFix"/>
<feBlend mode="normal" in="SourceGraphic" in2="BackgroundImageFix" result="shape"/>
<feColorMatrix in="SourceAlpha" type="matrix" values="0 0 0 0 0 0 0 0 0 0 0 0 0 0 0 0 0 0 127 0" result="hardAlpha"/>
<feOffset dx="-4" dy="2"/>
<feComposite in2="hardAlpha" operator="arithmetic" k2="-1" k3="1"/>
<feColorMatrix type="matrix" values="0 0 0 0 0.356863 0 0 0 0 0.27451 0 0 0 0 0.2 0 0 0 1 0"/>
<feBlend mode="normal" in2="shape" result="effect1_innerShadow"/>
</filter>
<filter id="filter4_i" x="114.381" y="104.618" width="26.1644" height="65.1163" filterUnits="userSpaceOnUse" color-interpolation-filters="sRGB">
<feFlood flood-opacity="0" result="BackgroundImageFix"/>
<feBlend mode="normal" in="SourceGraphic" in2="BackgroundImageFix" result="shape"/>
<feColorMatrix in="SourceAlpha" type="matrix" values="0 0 0 0 0 0 0 0 0 0 0 0 0 0 0 0 0 0 127 0" result="hardAlpha"/>
<feOffset dx="-4" dy="2"/>
<feComposite in2="hardAlpha" operator="arithmetic" k2="-1" k3="1"/>
<feColorMatrix type="matrix" values="0 0 0 0 0.356863 0 0 0 0 0.27451 0 0 0 0 0.2 0 0 0 1 0"/>
<feBlend mode="normal" in2="shape" result="effect1_innerShadow"/>
</filter>
<filter id="filter5_d" x="129.842" y="159.483" width="26.5462" height="17.4555" filterUnits="userSpaceOnUse" color-interpolation-filters="sRGB">
<feFlood flood-opacity="0" result="BackgroundImageFix"/>
<feColorMatrix in="SourceAlpha" type="matrix" values="0 0 0 0 0 0 0 0 0 0 0 0 0 0 0 0 0 0 127 0"/>
<feOffset dx="8" dy="9"/>
<feColorMatrix type="matrix" values="0 0 0 0 0.325 0 0 0 0 0.258839 0 0 0 0 0.196354 0 0 0 1 0"/>
<feBlend mode="normal" in2="BackgroundImageFix" result="effect1_dropShadow"/>
<feBlend mode="normal" in="SourceGraphic" in2="effect1_dropShadow" result="shape"/>
</filter>
</defs>
</svg>
