<svg width="281" height="261" viewBox="0 0 281 261" fill="none" xmlns="http://www.w3.org/2000/svg">
<rect width="258" height="261" rx="20" fill="#95BDE2"/>
<g filter="url(#filter0_d)">
<path d="M199.466 110.241C199.466 112.729 197.117 114.963 193.931 114.963C190.745 114.963 188.396 112.729 188.396 110.241C188.396 107.754 190.745 105.52 193.931 105.52C197.117 105.52 199.466 107.754 199.466 110.241Z" stroke="#696969" stroke-width="2"/>
</g>
<path d="M239.46 135.035C230.186 145.745 214.165 146.957 203.68 137.805C193.196 128.653 192.164 112.556 201.438 101.846C210.712 91.1363 226.733 89.9243 237.218 99.076C247.702 108.228 248.734 124.325 239.46 135.035Z" stroke="#696969" stroke-width="3"/>
<g filter="url(#filter1_d)">
<path d="M203.983 153.678C196.413 162.419 190.205 162.328 179.993 159.003C175.475 157.146 168.546 167.815 162.69 174.056C161.251 175.59 159.467 172.109 157.96 173.818C155.833 176.229 157.332 174.68 155.081 177.142C154.005 178.319 156.453 181.258 156.453 181.258L155.734 182.089C155.734 182.089 152.804 180.89 151.795 182.056C149.396 184.826 151.208 182.974 149.396 184.826C147.196 187.076 149.481 189.763 149.481 189.763L148.761 190.594L144.839 190.089C142.028 192.789 133.181 201.314 130.757 196.28C128.334 191.247 169.405 151.606 167.853 148.407C163.154 138.716 162.201 132.556 169.77 123.815C179.839 112.188 192.587 110.657 204.016 120.633C215.444 130.608 214.051 142.051 203.983 153.678Z" fill="#CECECE"/>
<g filter="url(#filter2_i)">
<ellipse rx="3.66229" ry="4.39718" transform="matrix(0.753368 0.657599 -0.65462 0.755958 198.27 131.184)" fill="#95BDE2"/>
</g>
</g>
<path d="M201.491 101.731L200.361 100.744C200.333 100.777 200.306 100.81 200.281 100.845L201.491 101.731ZM241.773 136.892L242.903 137.879L241.773 136.892ZM214.803 143.736L214.32 145.158L214.803 143.736ZM197.553 128.618C197.068 127.945 196.132 127.793 195.462 128.279C194.792 128.765 194.642 129.705 195.126 130.378L197.553 128.618ZM202.621 102.717C211.847 92.0629 227.832 90.883 238.321 100.039L240.285 97.771C228.527 87.5077 210.653 88.8583 200.361 100.744L202.621 102.717ZM238.321 100.039C248.81 109.195 249.869 125.251 240.643 135.906L242.903 137.879C253.196 125.992 252.043 108.034 240.285 97.771L238.321 100.039ZM241.773 136.892C240.643 135.906 240.643 135.905 240.643 135.905C240.644 135.905 240.644 135.904 240.644 135.904C240.644 135.904 240.644 135.904 240.644 135.904C240.644 135.904 240.644 135.905 240.642 135.906C240.64 135.909 240.634 135.915 240.627 135.924C240.611 135.941 240.586 135.97 240.55 136.008C240.479 136.085 240.367 136.203 240.218 136.354C239.918 136.656 239.466 137.09 238.87 137.599C237.677 138.617 235.924 139.922 233.693 141.061C229.25 143.329 222.93 144.935 215.286 142.314L214.32 145.158C222.901 148.101 230.067 146.285 235.052 143.74C237.535 142.472 239.482 141.023 240.811 139.889C241.476 139.321 241.989 138.829 242.341 138.475C242.517 138.297 242.652 138.154 242.746 138.052C242.793 138.001 242.83 137.961 242.856 137.932C242.869 137.917 242.88 137.905 242.887 137.896C242.891 137.892 242.894 137.888 242.897 137.885C242.898 137.884 242.899 137.882 242.9 137.881C242.901 137.881 242.901 137.88 242.902 137.88C242.902 137.879 242.903 137.879 241.773 136.892ZM215.286 142.314C207.296 139.574 202.568 135.583 197.553 128.618L195.126 130.378C200.433 137.748 205.636 142.181 214.32 145.158L215.286 142.314ZM196.719 114.294C197.258 111.891 198.713 109.002 200.109 106.629C200.796 105.461 201.447 104.453 201.926 103.738C202.166 103.38 202.361 103.097 202.496 102.905C202.564 102.808 202.616 102.735 202.651 102.686C202.668 102.662 202.681 102.644 202.689 102.632C202.694 102.626 202.697 102.622 202.698 102.619C202.699 102.618 202.7 102.617 202.7 102.617C202.7 102.617 202.701 102.617 202.701 102.617C202.701 102.617 202.7 102.617 202.7 102.617C202.7 102.617 202.7 102.617 201.491 101.731C200.281 100.845 200.281 100.845 200.281 100.845C200.28 100.845 200.28 100.845 200.28 100.846C200.28 100.846 200.279 100.847 200.279 100.847C200.278 100.848 200.277 100.85 200.275 100.852C200.272 100.856 200.268 100.862 200.263 100.87C200.252 100.885 200.237 100.906 200.217 100.934C200.177 100.99 200.12 101.071 200.047 101.174C199.901 101.382 199.694 101.683 199.441 102.059C198.938 102.811 198.254 103.87 197.53 105.099C196.107 107.52 194.446 110.747 193.798 113.631L196.719 114.294Z" fill="#696969"/>
<path d="M170.217 156.309L151.159 176.639L135.558 194.655" stroke="#BCBCBC" stroke-dasharray="20 10"/>
<path d="M169.791 154.004L151.699 173.218L134.668 192.886" stroke="#AEAEAE"/>
<path d="M180.758 129.029C171.781 139.395 180.967 151.099 175.481 146.311C169.996 141.522 168.87 132.686 174.832 125.802C180.793 118.918 191.584 116.592 197.07 121.38C202.556 126.168 189.734 118.663 180.758 129.029Z" fill="#D6D6D6"/>
<g filter="url(#filter3_d)">
<g filter="url(#filter4_i)">
<path d="M275.999 163.606C275.999 178.898 265.763 189.91 256.988 189.91C243.765 189.91 227.009 176.04 227.009 163.606C227.009 151.171 241.78 141.091 255.004 141.091C268.227 141.091 275.999 151.171 275.999 163.606Z" fill="#357246"/>
</g>
<g filter="url(#filter5_i)">
<ellipse rx="6.22081" ry="1.83365" transform="matrix(0.879032 -0.476763 0.47383 0.880617 243.583 148.608)" fill="#95BDE2"/>
</g>
<path d="M243.776 137.424C247.362 141.343 247.117 147.696 243.095 148.797C242.73 148.43 247.876 143.372 242.744 138.376C237.611 133.38 233.59 137.482 232.493 139.987C231.396 140.355 231.485 140.533 231.396 140.354C231.396 139.253 232.02 138.554 232.493 137.785C235.914 134.629 240.19 133.505 243.776 137.424Z" fill="#626161"/>
<path d="M235.783 146.598C235.783 146.598 236.88 148.066 237.246 146.965C234.251 143.888 234.321 143.661 234.321 143.661C232.493 144.762 232.127 143.661 235.783 146.598Z" fill="#626161"/>
</g>
<path d="M246.581 174.569C259.481 183.568 269.225 174.322 265.67 179.84C262.114 185.358 253.308 186.504 244.741 180.527C236.174 174.55 231.091 163.714 234.647 158.195C238.203 152.677 233.682 165.569 246.581 174.569Z" fill="#3E7D50"/>
<g filter="url(#filter6_d)">
<path d="M189.451 108.334C189.451 110.001 188.272 111.149 187.056 111.149C185.84 111.149 184.661 110.001 184.661 108.334C184.661 106.667 185.84 105.52 187.056 105.52C188.272 105.52 189.451 106.667 189.451 108.334Z" stroke="#696969" stroke-width="2"/>
</g>
<g filter="url(#filter7_d)">
<path d="M186.397 106.428C186.397 108.087 185.213 109.242 183.973 109.242C182.734 109.242 181.55 108.087 181.55 106.428C181.55 104.769 182.734 103.613 183.973 103.613C185.213 103.613 186.397 104.769 186.397 106.428Z" stroke="#696969" stroke-width="2"/>
</g>
<g filter="url(#filter8_d)">
<path d="M182.661 105.791C182.661 107.366 181.417 108.606 179.926 108.606C178.436 108.606 177.192 107.366 177.192 105.791C177.192 104.217 178.436 102.977 179.926 102.977C181.417 102.977 182.661 104.217 182.661 105.791Z" stroke="#696969" stroke-width="2"/>
</g>
<g filter="url(#filter9_d)">
<path d="M178.306 105.791C178.306 107.366 177.062 108.606 175.571 108.606C174.081 108.606 172.837 107.366 172.837 105.791C172.837 104.217 174.081 102.977 175.571 102.977C177.062 102.977 178.306 104.217 178.306 105.791Z" stroke="#696969" stroke-width="2"/>
</g>
<g filter="url(#filter10_d)">
<path d="M174.57 106.428C174.57 107.928 173.263 109.242 171.525 109.242C169.787 109.242 168.479 107.928 168.479 106.428C168.479 104.928 169.787 103.613 171.525 103.613C173.263 103.613 174.57 104.928 174.57 106.428Z" stroke="#696969" stroke-width="2"/>
</g>
<g filter="url(#filter11_d)">
<path d="M170.214 105.156C170.214 106.656 168.907 107.971 167.169 107.971C165.43 107.971 164.123 106.656 164.123 105.156C164.123 103.657 165.43 102.342 167.169 102.342C168.907 102.342 170.214 103.657 170.214 105.156Z" stroke="#696969" stroke-width="2"/>
</g>
<g filter="url(#filter12_d)">
<path d="M166.479 102.613C166.479 104.188 165.235 105.428 163.745 105.428C162.255 105.428 161.011 104.188 161.011 102.613C161.011 101.039 162.255 99.7988 163.745 99.7988C165.235 99.7988 166.479 101.039 166.479 102.613Z" stroke="#696969" stroke-width="2"/>
</g>
<g filter="url(#filter13_di)">
<ellipse rx="31.0482" ry="28.0315" transform="matrix(-0.515179 0.857083 -0.847159 -0.53134 137.442 90.5389)" fill="#434040"/>
<path d="M183.118 86.4022L164.311 93.5704L156.07 66.2233L183.118 86.4022Z" fill="#434040"/>
<path d="M174.38 85.9048L165.465 89.8635L161.874 75.5571L174.38 85.9048Z" fill="#AB7C93"/>
<path d="M154.829 133.817L152.302 113.456L124.675 118.845L154.829 133.817Z" fill="#434040"/>
<path d="M149.259 126.571L149.957 117.039L135.533 119.55L149.259 126.571Z" fill="#AB7C93"/>
<path d="M143.609 87.9762C143.609 87.9762 142.196 82.6288 144.598 78.6323C147 74.6358 152.308 73.5037 152.308 73.5037C152.308 73.5037 153.721 78.8511 151.319 82.8476C148.917 86.8441 143.609 87.9762 143.609 87.9762Z" fill="#DEDB8F"/>
<path d="M130.386 109.656C130.386 109.656 128.973 104.308 131.376 100.312C133.778 96.3155 139.086 95.1833 139.086 95.1833C139.086 95.1833 140.499 100.531 138.096 104.527C135.694 108.524 130.386 109.656 130.386 109.656Z" fill="#DEDB8F"/>
<path d="M132.331 91.1906C131.673 90.7784 129.407 87.486 130.414 85.81C131.422 84.1341 135.321 84.7092 135.979 85.1215C136.636 85.5337 135.162 86.4801 134.155 88.156C133.147 89.832 132.988 91.6029 132.331 91.1906Z" fill="#0A0A0A"/>
<ellipse rx="0.817058" ry="3.96672" transform="matrix(-0.515179 0.857083 -0.847159 -0.53134 147.958 80.741)" fill="#242424"/>
<ellipse rx="0.817058" ry="3.96672" transform="matrix(-0.515179 0.857083 -0.847159 -0.53134 134.542 102.878)" fill="#242424"/>
<ellipse rx="7.35352" ry="6.87565" transform="matrix(-0.515179 0.857083 -0.847159 -0.53134 132.27 78.618)" fill="#595959"/>
<ellipse rx="7.35352" ry="6.87565" transform="matrix(-0.515179 0.857083 -0.847159 -0.53134 124.974 90.7547)" fill="#595959"/>
<path d="M140.733 106.141C138.564 109.986 135.082 112.088 132.957 110.837C130.832 109.587 134.715 107.72 136.884 103.875C139.053 100.03 138.686 95.6625 140.812 96.9134C142.937 98.1644 142.902 102.296 140.733 106.141Z" fill="#4F4F4F"/>
<path d="M153.795 83.7851C151.626 87.6301 148.145 89.733 146.02 88.482C143.895 87.231 147.778 85.3649 149.947 81.5199C152.116 77.6749 151.749 73.307 153.874 74.558C156 75.809 155.964 79.9401 153.795 83.7851Z" fill="#4F4F4F"/>
</g>
<defs>
<filter id="filter0_d" x="183.396" y="104.52" width="17.0702" height="13.4438" filterUnits="userSpaceOnUse" color-interpolation-filters="sRGB">
<feFlood flood-opacity="0" result="BackgroundImageFix"/>
<feColorMatrix in="SourceAlpha" type="matrix" values="0 0 0 0 0 0 0 0 0 0 0 0 0 0 0 0 0 0 127 0"/>
<feOffset dx="-4" dy="2"/>
<feColorMatrix type="matrix" values="0 0 0 0 0.443137 0 0 0 0 0.592157 0 0 0 0 0.733333 0 0 0 1 0"/>
<feBlend mode="normal" in2="BackgroundImageFix" result="effect1_dropShadow"/>
<feBlend mode="normal" in="SourceGraphic" in2="effect1_dropShadow" result="shape"/>
</filter>
<filter id="filter1_d" x="130.654" y="114.027" width="86.4151" height="94.8135" filterUnits="userSpaceOnUse" color-interpolation-filters="sRGB">
<feFlood flood-opacity="0" result="BackgroundImageFix"/>
<feColorMatrix in="SourceAlpha" type="matrix" values="0 0 0 0 0 0 0 0 0 0 0 0 0 0 0 0 0 0 127 0"/>
<feOffset dx="5" dy="11"/>
<feColorMatrix type="matrix" values="0 0 0 0 0.443056 0 0 0 0 0.593849 0 0 0 0 0.733333 0 0 0 1 0"/>
<feBlend mode="normal" in2="BackgroundImageFix" result="effect1_dropShadow"/>
<feBlend mode="normal" in="SourceGraphic" in2="effect1_dropShadow" result="shape"/>
</filter>
<filter id="filter2_i" x="194.283" y="127.078" width="7.97448" height="8.21023" filterUnits="userSpaceOnUse" color-interpolation-filters="sRGB">
<feFlood flood-opacity="0" result="BackgroundImageFix"/>
<feBlend mode="normal" in="SourceGraphic" in2="BackgroundImageFix" result="shape"/>
<feColorMatrix in="SourceAlpha" type="matrix" values="0 0 0 0 0 0 0 0 0 0 0 0 0 0 0 0 0 0 127 0" result="hardAlpha"/>
<feOffset dx="-4" dy="2"/>
<feComposite in2="hardAlpha" operator="arithmetic" k2="-1" k3="1"/>
<feColorMatrix type="matrix" values="0 0 0 0 0.5375 0 0 0 0 0.5375 0 0 0 0 0.5375 0 0 0 1 0"/>
<feBlend mode="normal" in2="shape" result="effect1_innerShadow"/>
</filter>
<filter id="filter3_d" x="227.009" y="134.923" width="53.9903" height="65.9869" filterUnits="userSpaceOnUse" color-interpolation-filters="sRGB">
<feFlood flood-opacity="0" result="BackgroundImageFix"/>
<feColorMatrix in="SourceAlpha" type="matrix" values="0 0 0 0 0 0 0 0 0 0 0 0 0 0 0 0 0 0 127 0"/>
<feOffset dx="5" dy="11"/>
<feColorMatrix type="matrix" values="0 0 0 0 0.443056 0 0 0 0 0.593849 0 0 0 0 0.733333 0 0 0 1 0"/>
<feBlend mode="normal" in2="BackgroundImageFix" result="effect1_dropShadow"/>
<feBlend mode="normal" in="SourceGraphic" in2="effect1_dropShadow" result="shape"/>
</filter>
<filter id="filter4_i" x="227.009" y="141.091" width="48.9903" height="48.8189" filterUnits="userSpaceOnUse" color-interpolation-filters="sRGB">
<feFlood flood-opacity="0" result="BackgroundImageFix"/>
<feBlend mode="normal" in="SourceGraphic" in2="BackgroundImageFix" result="shape"/>
<feColorMatrix in="SourceAlpha" type="matrix" values="0 0 0 0 0 0 0 0 0 0 0 0 0 0 0 0 0 0 127 0" result="hardAlpha"/>
<feOffset dx="-4" dy="-2"/>
<feComposite in2="hardAlpha" operator="arithmetic" k2="-1" k3="1"/>
<feColorMatrix type="matrix" values="0 0 0 0 0.172205 0 0 0 0 0.379167 0 0 0 0 0.230154 0 0 0 1 0"/>
<feBlend mode="normal" in2="shape" result="effect1_innerShadow"/>
</filter>
<filter id="filter5_i" x="238.046" y="145.23" width="11.0754" height="6.75514" filterUnits="userSpaceOnUse" color-interpolation-filters="sRGB">
<feFlood flood-opacity="0" result="BackgroundImageFix"/>
<feBlend mode="normal" in="SourceGraphic" in2="BackgroundImageFix" result="shape"/>
<feColorMatrix in="SourceAlpha" type="matrix" values="0 0 0 0 0 0 0 0 0 0 0 0 0 0 0 0 0 0 127 0" result="hardAlpha"/>
<feOffset dx="-1" dy="3"/>
<feComposite in2="hardAlpha" operator="arithmetic" k2="-1" k3="1"/>
<feColorMatrix type="matrix" values="0 0 0 0 0.172549 0 0 0 0 0.380392 0 0 0 0 0.231373 0 0 0 1 0"/>
<feBlend mode="normal" in2="shape" result="effect1_innerShadow"/>
</filter>
<filter id="filter6_d" x="178.661" y="104.52" width="11.7897" height="9.62922" filterUnits="userSpaceOnUse" color-interpolation-filters="sRGB">
<feFlood flood-opacity="0" result="BackgroundImageFix"/>
<feColorMatrix in="SourceAlpha" type="matrix" values="0 0 0 0 0 0 0 0 0 0 0 0 0 0 0 0 0 0 127 0"/>
<feOffset dx="-5" dy="2"/>
<feColorMatrix type="matrix" values="0 0 0 0 0.443137 0 0 0 0 0.592157 0 0 0 0 0.733333 0 0 0 1 0"/>
<feBlend mode="normal" in2="BackgroundImageFix" result="effect1_dropShadow"/>
<feBlend mode="normal" in="SourceGraphic" in2="effect1_dropShadow" result="shape"/>
</filter>
<filter id="filter7_d" x="175.55" y="102.613" width="11.8463" height="9.62922" filterUnits="userSpaceOnUse" color-interpolation-filters="sRGB">
<feFlood flood-opacity="0" result="BackgroundImageFix"/>
<feColorMatrix in="SourceAlpha" type="matrix" values="0 0 0 0 0 0 0 0 0 0 0 0 0 0 0 0 0 0 127 0"/>
<feOffset dx="-5" dy="2"/>
<feColorMatrix type="matrix" values="0 0 0 0 0.443137 0 0 0 0 0.592157 0 0 0 0 0.733333 0 0 0 1 0"/>
<feBlend mode="normal" in2="BackgroundImageFix" result="effect1_dropShadow"/>
<feBlend mode="normal" in="SourceGraphic" in2="effect1_dropShadow" result="shape"/>
</filter>
<filter id="filter8_d" x="171.192" y="101.977" width="12.4687" height="9.62922" filterUnits="userSpaceOnUse" color-interpolation-filters="sRGB">
<feFlood flood-opacity="0" result="BackgroundImageFix"/>
<feColorMatrix in="SourceAlpha" type="matrix" values="0 0 0 0 0 0 0 0 0 0 0 0 0 0 0 0 0 0 127 0"/>
<feOffset dx="-5" dy="2"/>
<feColorMatrix type="matrix" values="0 0 0 0 0.443137 0 0 0 0 0.592157 0 0 0 0 0.733333 0 0 0 1 0"/>
<feBlend mode="normal" in2="BackgroundImageFix" result="effect1_dropShadow"/>
<feBlend mode="normal" in="SourceGraphic" in2="effect1_dropShadow" result="shape"/>
</filter>
<filter id="filter9_d" x="166.837" y="101.977" width="12.4687" height="9.62922" filterUnits="userSpaceOnUse" color-interpolation-filters="sRGB">
<feFlood flood-opacity="0" result="BackgroundImageFix"/>
<feColorMatrix in="SourceAlpha" type="matrix" values="0 0 0 0 0 0 0 0 0 0 0 0 0 0 0 0 0 0 127 0"/>
<feOffset dx="-5" dy="2"/>
<feColorMatrix type="matrix" values="0 0 0 0 0.443137 0 0 0 0 0.592157 0 0 0 0 0.733333 0 0 0 1 0"/>
<feBlend mode="normal" in2="BackgroundImageFix" result="effect1_dropShadow"/>
<feBlend mode="normal" in="SourceGraphic" in2="effect1_dropShadow" result="shape"/>
</filter>
<filter id="filter10_d" x="162.479" y="102.613" width="13.0911" height="9.62922" filterUnits="userSpaceOnUse" color-interpolation-filters="sRGB">
<feFlood flood-opacity="0" result="BackgroundImageFix"/>
<feColorMatrix in="SourceAlpha" type="matrix" values="0 0 0 0 0 0 0 0 0 0 0 0 0 0 0 0 0 0 127 0"/>
<feOffset dx="-5" dy="2"/>
<feColorMatrix type="matrix" values="0 0 0 0 0.443137 0 0 0 0 0.592157 0 0 0 0 0.733333 0 0 0 1 0"/>
<feBlend mode="normal" in2="BackgroundImageFix" result="effect1_dropShadow"/>
<feBlend mode="normal" in="SourceGraphic" in2="effect1_dropShadow" result="shape"/>
</filter>
<filter id="filter11_d" x="158.123" y="101.342" width="13.0911" height="9.62922" filterUnits="userSpaceOnUse" color-interpolation-filters="sRGB">
<feFlood flood-opacity="0" result="BackgroundImageFix"/>
<feColorMatrix in="SourceAlpha" type="matrix" values="0 0 0 0 0 0 0 0 0 0 0 0 0 0 0 0 0 0 127 0"/>
<feOffset dx="-5" dy="2"/>
<feColorMatrix type="matrix" values="0 0 0 0 0.443137 0 0 0 0 0.592157 0 0 0 0 0.733333 0 0 0 1 0"/>
<feBlend mode="normal" in2="BackgroundImageFix" result="effect1_dropShadow"/>
<feBlend mode="normal" in="SourceGraphic" in2="effect1_dropShadow" result="shape"/>
</filter>
<filter id="filter12_d" x="155.011" y="98.7988" width="12.4687" height="9.62922" filterUnits="userSpaceOnUse" color-interpolation-filters="sRGB">
<feFlood flood-opacity="0" result="BackgroundImageFix"/>
<feColorMatrix in="SourceAlpha" type="matrix" values="0 0 0 0 0 0 0 0 0 0 0 0 0 0 0 0 0 0 127 0"/>
<feOffset dx="-5" dy="2"/>
<feColorMatrix type="matrix" values="0 0 0 0 0.443137 0 0 0 0 0.592157 0 0 0 0 0.733333 0 0 0 1 0"/>
<feBlend mode="normal" in2="BackgroundImageFix" result="effect1_dropShadow"/>
<feBlend mode="normal" in="SourceGraphic" in2="effect1_dropShadow" result="shape"/>
</filter>
<filter id="filter13_di" x="103.807" y="60.0378" width="79.3113" height="81.7795" filterUnits="userSpaceOnUse" color-interpolation-filters="sRGB">
<feFlood flood-opacity="0" result="BackgroundImageFix"/>
<feColorMatrix in="SourceAlpha" type="matrix" values="0 0 0 0 0 0 0 0 0 0 0 0 0 0 0 0 0 0 127 0"/>
<feOffset dx="-5" dy="8"/>
<feColorMatrix type="matrix" values="0 0 0 0 0.443137 0 0 0 0 0.592157 0 0 0 0 0.733333 0 0 0 1 0"/>
<feBlend mode="normal" in2="BackgroundImageFix" result="effect1_dropShadow"/>
<feBlend mode="normal" in="SourceGraphic" in2="effect1_dropShadow" result="shape"/>
<feColorMatrix in="SourceAlpha" type="matrix" values="0 0 0 0 0 0 0 0 0 0 0 0 0 0 0 0 0 0 127 0" result="hardAlpha"/>
<feOffset dx="4" dy="-3"/>
<feComposite in2="hardAlpha" operator="arithmetic" k2="-1" k3="1"/>
<feColorMatrix type="matrix" values="0 0 0 0 0.129167 0 0 0 0 0.111406 0 0 0 0 0.111406 0 0 0 1 0"/>
<feBlend mode="normal" in2="shape" result="effect2_innerShadow"/>
</filter>
</defs>
</svg>
