<svg width="281" height="277" viewBox="0 0 281 277" fill="none" xmlns="http://www.w3.org/2000/svg">
<rect width="256.882" height="276.689" rx="20" fill="#771D63"/>
<g filter="url(#filter0_d)">
<rect x="100.184" y="65.2983" width="170.056" height="100.715" rx="18" fill="#BB89B0"/>
</g>
<rect x="132.551" y="104.036" width="110.459" height="3.32027" rx="1.66013" fill="#CC9AC1"/>
<rect x="132.551" y="121.19" width="110.459" height="3.32027" rx="1.66013" fill="#CC9AC1"/>
<g filter="url(#filter1_d)">
<ellipse cx="166.459" cy="84.3897" rx="9.7615" ry="9.68411" fill="#D9DBCA"/>
</g>
<g filter="url(#filter2_d)">
<ellipse cx="127.927" cy="84.3897" rx="9.7615" ry="9.68411" fill="#D9DBCA"/>
</g>
<g filter="url(#filter3_d)">
<ellipse cx="204.477" cy="84.3897" rx="9.7615" ry="9.68411" fill="#D9DBCA"/>
</g>
<g filter="url(#filter4_d)">
<ellipse cx="242.754" cy="84.3897" rx="10.0184" ry="9.68411" fill="#D9DBCA"/>
</g>
<g filter="url(#filter5_d)">
<ellipse cx="166.459" cy="145.538" rx="9.7615" ry="9.40743" fill="#D9DBCA"/>
</g>
<g filter="url(#filter6_di)">
<ellipse cx="127.927" cy="145.538" rx="9.7615" ry="9.40743" fill="#783469"/>
</g>
<g filter="url(#filter7_d)">
<ellipse cx="204.477" cy="145.538" rx="9.7615" ry="9.40743" fill="#D9DBCA"/>
</g>
<g filter="url(#filter8_d)">
<ellipse cx="242.754" cy="145.538" rx="10.0184" ry="9.40743" fill="#D9DBCA"/>
</g>
<rect width="1.60439" height="12.2931" rx="0.802195" transform="matrix(0.020928 -0.999781 0.999799 0.0200513 160.421 85.3525)" fill="#C4C6B7"/>
<rect width="1.61977" height="12.1791" rx="0.809887" transform="matrix(0.671931 -0.740614 0.754728 0.656038 238.07 142.245)" fill="#C4C6B7"/>
<path d="M162.466 84.3891C162.466 86.6813 164.516 88.5394 162.466 88.5394C160.415 88.5394 158.753 86.6813 158.753 84.3891C158.753 82.0969 160.415 80.2388 162.466 80.2388C164.516 80.2388 162.466 82.0969 162.466 84.3891Z" fill="#FCFCFC"/>
<path d="M162.466 84.3891C162.466 86.6813 164.516 88.5394 162.466 88.5394C160.415 88.5394 158.753 86.6813 158.753 84.3891C158.753 82.0969 160.415 80.2388 162.466 80.2388C164.516 80.2388 162.466 82.0969 162.466 84.3891Z" fill="#FCFCFC"/>
<path d="M162.466 84.3891C162.466 86.6813 164.516 88.5394 162.466 88.5394C160.415 88.5394 158.753 86.6813 158.753 84.3891C158.753 82.0969 160.415 80.2388 162.466 80.2388C164.516 80.2388 162.466 82.0969 162.466 84.3891Z" fill="#FCFCFC"/>
<path d="M162.466 84.3891C162.466 86.6813 164.516 88.5394 162.466 88.5394C160.415 88.5394 158.753 86.6813 158.753 84.3891C158.753 82.0969 160.415 80.2388 162.466 80.2388C164.516 80.2388 162.466 82.0969 162.466 84.3891Z" fill="#FCFCFC"/>
<path d="M200.484 84.3891C200.484 86.6813 202.534 88.5394 200.484 88.5394C198.433 88.5394 196.771 86.6813 196.771 84.3891C196.771 82.0969 198.433 80.2388 200.484 80.2388C202.534 80.2388 200.484 82.0969 200.484 84.3891Z" fill="#FCFCFC"/>
<path d="M200.484 84.3891C200.484 86.6813 202.534 88.5394 200.484 88.5394C198.433 88.5394 196.771 86.6813 196.771 84.3891C196.771 82.0969 198.433 80.2388 200.484 80.2388C202.534 80.2388 200.484 82.0969 200.484 84.3891Z" fill="#FCFCFC"/>
<path d="M200.484 84.3891C200.484 86.6813 202.534 88.5394 200.484 88.5394C198.433 88.5394 196.771 86.6813 196.771 84.3891C196.771 82.0969 198.433 80.2388 200.484 80.2388C202.534 80.2388 200.484 82.0969 200.484 84.3891Z" fill="#FCFCFC"/>
<path d="M200.484 84.3891C200.484 86.6813 202.534 88.5394 200.484 88.5394C198.433 88.5394 196.771 86.6813 196.771 84.3891C196.771 82.0969 198.433 80.2388 200.484 80.2388C202.534 80.2388 200.484 82.0969 200.484 84.3891Z" fill="#FCFCFC"/>
<path d="M239.53 84.3891C239.53 86.6813 241.58 88.5394 239.53 88.5394C237.48 88.5394 235.817 86.6813 235.817 84.3891C235.817 82.0969 237.48 80.2388 239.53 80.2388C241.58 80.2388 239.53 82.0969 239.53 84.3891Z" fill="#FCFCFC"/>
<path d="M239.53 84.3891C239.53 86.6813 241.58 88.5394 239.53 88.5394C237.48 88.5394 235.817 86.6813 235.817 84.3891C235.817 82.0969 237.48 80.2388 239.53 80.2388C241.58 80.2388 239.53 82.0969 239.53 84.3891Z" fill="#FCFCFC"/>
<path d="M239.53 84.3891C239.53 86.6813 241.58 88.5394 239.53 88.5394C237.48 88.5394 235.817 86.6813 235.817 84.3891C235.817 82.0969 237.48 80.2388 239.53 80.2388C241.58 80.2388 239.53 82.0969 239.53 84.3891Z" fill="#FCFCFC"/>
<path d="M239.53 84.3891C239.53 86.6813 241.58 88.5394 239.53 88.5394C237.48 88.5394 235.817 86.6813 235.817 84.3891C235.817 82.0969 237.48 80.2388 239.53 80.2388C241.58 80.2388 239.53 82.0969 239.53 84.3891Z" fill="#FCFCFC"/>
<path d="M128.954 145.295C128.954 147.612 126.225 145.295 124.471 149.49C118.622 152.686 122.521 147.612 122.521 145.295C122.521 142.979 122.533 141.101 124.471 141.101C128.954 135.108 128.954 142.979 128.954 145.295Z" fill="#945185"/>
<path d="M162.466 145.262C162.466 147.554 164.516 149.412 162.466 149.412C160.415 149.412 158.753 147.554 158.753 145.262C158.753 142.97 160.415 141.112 162.466 141.112C164.516 141.112 162.466 142.97 162.466 145.262Z" fill="#FCFCFC"/>
<path d="M162.466 145.262C162.466 147.554 164.516 149.412 162.466 149.412C160.415 149.412 158.753 147.554 158.753 145.262C158.753 142.97 160.415 141.112 162.466 141.112C164.516 141.112 162.466 142.97 162.466 145.262Z" fill="#FCFCFC"/>
<path d="M162.466 145.262C162.466 147.554 164.516 149.412 162.466 149.412C160.415 149.412 158.753 147.554 158.753 145.262C158.753 142.97 160.415 141.112 162.466 141.112C164.516 141.112 162.466 142.97 162.466 145.262Z" fill="#FCFCFC"/>
<path d="M162.466 145.262C162.466 147.554 164.516 149.412 162.466 149.412C160.415 149.412 158.753 147.554 158.753 145.262C158.753 142.97 160.415 141.112 162.466 141.112C164.516 141.112 162.466 142.97 162.466 145.262Z" fill="#FCFCFC"/>
<path d="M200.484 145.262C200.484 147.554 202.534 149.412 200.484 149.412C198.433 149.412 196.771 147.554 196.771 145.262C196.771 142.97 198.433 141.112 200.484 141.112C202.534 141.112 200.484 142.97 200.484 145.262Z" fill="#FCFCFC"/>
<path d="M200.484 145.262C200.484 147.554 202.534 149.412 200.484 149.412C198.433 149.412 196.771 147.554 196.771 145.262C196.771 142.97 198.433 141.112 200.484 141.112C202.534 141.112 200.484 142.97 200.484 145.262Z" fill="#FCFCFC"/>
<path d="M200.484 145.262C200.484 147.554 202.534 149.412 200.484 149.412C198.433 149.412 196.771 147.554 196.771 145.262C196.771 142.97 198.433 141.112 200.484 141.112C202.534 141.112 200.484 142.97 200.484 145.262Z" fill="#FCFCFC"/>
<path d="M200.484 145.262C200.484 147.554 202.534 149.412 200.484 149.412C198.433 149.412 196.771 147.554 196.771 145.262C196.771 142.97 198.433 141.112 200.484 141.112C202.534 141.112 200.484 142.97 200.484 145.262Z" fill="#FCFCFC"/>
<path d="M239.53 145.262C239.53 147.554 241.58 149.412 239.53 149.412C237.48 149.412 235.817 147.554 235.817 145.262C235.817 142.97 237.48 141.112 239.53 141.112C241.58 141.112 239.53 142.97 239.53 145.262Z" fill="#FCFCFC"/>
<path d="M239.53 145.262C239.53 147.554 241.58 149.412 239.53 149.412C237.48 149.412 235.817 147.554 235.817 145.262C235.817 142.97 237.48 141.112 239.53 141.112C241.58 141.112 239.53 142.97 239.53 145.262Z" fill="#FCFCFC"/>
<path d="M239.53 145.262C239.53 147.554 241.58 149.412 239.53 149.412C237.48 149.412 235.817 147.554 235.817 145.262C235.817 142.97 237.48 141.112 239.53 141.112C241.58 141.112 239.53 142.97 239.53 145.262Z" fill="#FCFCFC"/>
<path d="M239.53 145.262C239.53 147.554 241.58 149.412 239.53 149.412C237.48 149.412 235.817 147.554 235.817 145.262C235.817 142.97 237.48 141.112 239.53 141.112C241.58 141.112 239.53 142.97 239.53 145.262Z" fill="#FCFCFC"/>
<path d="M124.446 84.3891C124.446 86.6813 126.496 88.5394 124.446 88.5394C122.396 88.5394 120.733 86.6813 120.733 84.3891C120.733 82.0969 122.396 80.2388 124.446 80.2388C126.496 80.2388 124.446 82.0969 124.446 84.3891Z" fill="#FCFCFC"/>
<path d="M124.446 84.3891C124.446 86.6813 126.496 88.5394 124.446 88.5394C122.396 88.5394 120.733 86.6813 120.733 84.3891C120.733 82.0969 122.396 80.2388 124.446 80.2388C126.496 80.2388 124.446 82.0969 124.446 84.3891Z" fill="#FCFCFC"/>
<path d="M124.446 84.3891C124.446 86.6813 126.496 88.5394 124.446 88.5394C122.396 88.5394 120.733 86.6813 120.733 84.3891C120.733 82.0969 122.396 80.2388 124.446 80.2388C126.496 80.2388 124.446 82.0969 124.446 84.3891Z" fill="#FCFCFC"/>
<path d="M124.446 84.3891C124.446 86.6813 126.496 88.5394 124.446 88.5394C122.396 88.5394 120.733 86.6813 120.733 84.3891C120.733 82.0969 122.396 80.2388 124.446 80.2388C126.496 80.2388 124.446 82.0969 124.446 84.3891Z" fill="#FCFCFC"/>
<rect x="127.414" y="78.5806" width="1.54129" height="11.6209" rx="0.770645" fill="#C4C6B7"/>
<rect x="164.918" y="139.451" width="2.05505" height="12.1743" rx="1.02753" fill="#C4C6B7"/>
<rect x="203.963" y="139.451" width="1.54129" height="12.1743" rx="0.770645" fill="#C4C6B7"/>
<rect x="242.496" y="78.5806" width="1.54129" height="11.6209" rx="0.770645" fill="#C4C6B7"/>
<rect width="1.63644" height="12.0531" rx="0.818218" transform="matrix(0.962189 0.272383 -0.28336 0.959014 205.596 78.5474)" fill="#C4C6B7"/>
<rect x="103.781" y="70.2783" width="6.67892" height="84.6668" rx="3.33946" fill="#CC9AC1" fill-opacity="0.5"/>
<g filter="url(#filter9_d)">
<path d="M124.331 206.153C124.331 210.289 118.925 213.051 112.257 213.051C105.589 213.051 100.184 210.289 100.184 206.153C100.184 202.016 105.589 198.663 112.257 198.663C118.925 198.663 124.331 202.016 124.331 206.153Z" fill="#D9DBCA"/>
</g>
<path d="M105.952 205.303C105.952 206.526 108.002 207.517 105.952 207.517C103.901 207.517 102.239 206.526 102.239 205.303C102.239 204.081 103.901 203.09 105.952 203.09C108.002 203.09 105.952 204.081 105.952 205.303Z" fill="#FCFCFC"/>
<path d="M105.952 205.303C105.952 206.526 108.002 207.517 105.952 207.517C103.901 207.517 102.239 206.526 102.239 205.303C102.239 204.081 103.901 203.09 105.952 203.09C108.002 203.09 105.952 204.081 105.952 205.303Z" fill="#FCFCFC"/>
<path d="M105.952 205.303C105.952 206.526 108.002 207.517 105.952 207.517C103.901 207.517 102.239 206.526 102.239 205.303C102.239 204.081 103.901 203.09 105.952 203.09C108.002 203.09 105.952 204.081 105.952 205.303Z" fill="#FCFCFC"/>
<path d="M105.952 205.303C105.952 206.526 108.002 207.517 105.952 207.517C103.901 207.517 102.239 206.526 102.239 205.303C102.239 204.081 103.901 203.09 105.952 203.09C108.002 203.09 105.952 204.081 105.952 205.303Z" fill="#FCFCFC"/>
<defs>
<filter id="filter0_d" x="100.184" y="65.2983" width="180.056" height="120.715" filterUnits="userSpaceOnUse" color-interpolation-filters="sRGB">
<feFlood flood-opacity="0" result="BackgroundImageFix"/>
<feColorMatrix in="SourceAlpha" type="matrix" values="0 0 0 0 0 0 0 0 0 0 0 0 0 0 0 0 0 0 127 0"/>
<feOffset dx="10" dy="20"/>
<feColorMatrix type="matrix" values="0 0 0 0 0.420833 0 0 0 0 0.138524 0 0 0 0 0.358098 0 0 0 1 0"/>
<feBlend mode="normal" in2="BackgroundImageFix" result="effect1_dropShadow"/>
<feBlend mode="normal" in="SourceGraphic" in2="effect1_dropShadow" result="shape"/>
</filter>
<filter id="filter1_d" x="156.698" y="74.7056" width="19.523" height="25.3682" filterUnits="userSpaceOnUse" color-interpolation-filters="sRGB">
<feFlood flood-opacity="0" result="BackgroundImageFix"/>
<feColorMatrix in="SourceAlpha" type="matrix" values="0 0 0 0 0 0 0 0 0 0 0 0 0 0 0 0 0 0 127 0"/>
<feOffset dy="6"/>
<feColorMatrix type="matrix" values="0 0 0 0 0.670833 0 0 0 0 0.436042 0 0 0 0 0.618125 0 0 0 1 0"/>
<feBlend mode="normal" in2="BackgroundImageFix" result="effect1_dropShadow"/>
<feBlend mode="normal" in="SourceGraphic" in2="effect1_dropShadow" result="shape"/>
</filter>
<filter id="filter2_d" x="118.165" y="74.7056" width="19.523" height="25.3682" filterUnits="userSpaceOnUse" color-interpolation-filters="sRGB">
<feFlood flood-opacity="0" result="BackgroundImageFix"/>
<feColorMatrix in="SourceAlpha" type="matrix" values="0 0 0 0 0 0 0 0 0 0 0 0 0 0 0 0 0 0 127 0"/>
<feOffset dy="6"/>
<feColorMatrix type="matrix" values="0 0 0 0 0.670833 0 0 0 0 0.436042 0 0 0 0 0.618125 0 0 0 1 0"/>
<feBlend mode="normal" in2="BackgroundImageFix" result="effect1_dropShadow"/>
<feBlend mode="normal" in="SourceGraphic" in2="effect1_dropShadow" result="shape"/>
</filter>
<filter id="filter3_d" x="194.716" y="74.7056" width="19.523" height="25.3682" filterUnits="userSpaceOnUse" color-interpolation-filters="sRGB">
<feFlood flood-opacity="0" result="BackgroundImageFix"/>
<feColorMatrix in="SourceAlpha" type="matrix" values="0 0 0 0 0 0 0 0 0 0 0 0 0 0 0 0 0 0 127 0"/>
<feOffset dy="6"/>
<feColorMatrix type="matrix" values="0 0 0 0 0.670833 0 0 0 0 0.436042 0 0 0 0 0.618125 0 0 0 1 0"/>
<feBlend mode="normal" in2="BackgroundImageFix" result="effect1_dropShadow"/>
<feBlend mode="normal" in="SourceGraphic" in2="effect1_dropShadow" result="shape"/>
</filter>
<filter id="filter4_d" x="232.735" y="74.7056" width="20.0368" height="25.3682" filterUnits="userSpaceOnUse" color-interpolation-filters="sRGB">
<feFlood flood-opacity="0" result="BackgroundImageFix"/>
<feColorMatrix in="SourceAlpha" type="matrix" values="0 0 0 0 0 0 0 0 0 0 0 0 0 0 0 0 0 0 127 0"/>
<feOffset dy="6"/>
<feColorMatrix type="matrix" values="0 0 0 0 0.670833 0 0 0 0 0.436042 0 0 0 0 0.618125 0 0 0 1 0"/>
<feBlend mode="normal" in2="BackgroundImageFix" result="effect1_dropShadow"/>
<feBlend mode="normal" in="SourceGraphic" in2="effect1_dropShadow" result="shape"/>
</filter>
<filter id="filter5_d" x="156.698" y="136.13" width="19.523" height="24.8149" filterUnits="userSpaceOnUse" color-interpolation-filters="sRGB">
<feFlood flood-opacity="0" result="BackgroundImageFix"/>
<feColorMatrix in="SourceAlpha" type="matrix" values="0 0 0 0 0 0 0 0 0 0 0 0 0 0 0 0 0 0 127 0"/>
<feOffset dy="6"/>
<feColorMatrix type="matrix" values="0 0 0 0 0.670833 0 0 0 0 0.436042 0 0 0 0 0.618125 0 0 0 1 0"/>
<feBlend mode="normal" in2="BackgroundImageFix" result="effect1_dropShadow"/>
<feBlend mode="normal" in="SourceGraphic" in2="effect1_dropShadow" result="shape"/>
</filter>
<filter id="filter6_di" x="114.165" y="136.13" width="27.523" height="26.8149" filterUnits="userSpaceOnUse" color-interpolation-filters="sRGB">
<feFlood flood-opacity="0" result="BackgroundImageFix"/>
<feColorMatrix in="SourceAlpha" type="matrix" values="0 0 0 0 0 0 0 0 0 0 0 0 0 0 0 0 0 0 127 0"/>
<feOffset dy="4"/>
<feGaussianBlur stdDeviation="2"/>
<feColorMatrix type="matrix" values="0 0 0 0 0 0 0 0 0 0 0 0 0 0 0 0 0 0 0.25 0"/>
<feBlend mode="normal" in2="BackgroundImageFix" result="effect1_dropShadow"/>
<feBlend mode="normal" in="SourceGraphic" in2="effect1_dropShadow" result="shape"/>
<feColorMatrix in="SourceAlpha" type="matrix" values="0 0 0 0 0 0 0 0 0 0 0 0 0 0 0 0 0 0 127 0" result="hardAlpha"/>
<feOffset dy="6"/>
<feComposite in2="hardAlpha" operator="arithmetic" k2="-1" k3="1"/>
<feColorMatrix type="matrix" values="0 0 0 0 0.316667 0 0 0 0 0.127986 0 0 0 0 0.27431 0 0 0 1 0"/>
<feBlend mode="normal" in2="shape" result="effect2_innerShadow"/>
</filter>
<filter id="filter7_d" x="194.716" y="136.13" width="19.523" height="24.8149" filterUnits="userSpaceOnUse" color-interpolation-filters="sRGB">
<feFlood flood-opacity="0" result="BackgroundImageFix"/>
<feColorMatrix in="SourceAlpha" type="matrix" values="0 0 0 0 0 0 0 0 0 0 0 0 0 0 0 0 0 0 127 0"/>
<feOffset dy="6"/>
<feColorMatrix type="matrix" values="0 0 0 0 0.670833 0 0 0 0 0.436042 0 0 0 0 0.618125 0 0 0 1 0"/>
<feBlend mode="normal" in2="BackgroundImageFix" result="effect1_dropShadow"/>
<feBlend mode="normal" in="SourceGraphic" in2="effect1_dropShadow" result="shape"/>
</filter>
<filter id="filter8_d" x="232.735" y="136.13" width="20.0368" height="24.8149" filterUnits="userSpaceOnUse" color-interpolation-filters="sRGB">
<feFlood flood-opacity="0" result="BackgroundImageFix"/>
<feColorMatrix in="SourceAlpha" type="matrix" values="0 0 0 0 0 0 0 0 0 0 0 0 0 0 0 0 0 0 127 0"/>
<feOffset dy="6"/>
<feColorMatrix type="matrix" values="0 0 0 0 0.670833 0 0 0 0 0.436042 0 0 0 0 0.618125 0 0 0 1 0"/>
<feBlend mode="normal" in2="BackgroundImageFix" result="effect1_dropShadow"/>
<feBlend mode="normal" in="SourceGraphic" in2="effect1_dropShadow" result="shape"/>
</filter>
<filter id="filter9_d" x="100.184" y="198.663" width="31.1469" height="23.3878" filterUnits="userSpaceOnUse" color-interpolation-filters="sRGB">
<feFlood flood-opacity="0" result="BackgroundImageFix"/>
<feColorMatrix in="SourceAlpha" type="matrix" values="0 0 0 0 0 0 0 0 0 0 0 0 0 0 0 0 0 0 127 0"/>
<feOffset dx="7" dy="9"/>
<feColorMatrix type="matrix" values="0 0 0 0 0.358333 0 0 0 0 0.113472 0 0 0 0 0.30392 0 0 0 1 0"/>
<feBlend mode="normal" in2="BackgroundImageFix" result="effect1_dropShadow"/>
<feBlend mode="normal" in="SourceGraphic" in2="effect1_dropShadow" result="shape"/>
</filter>
</defs>
</svg>
